<svg xmlns="http://www.w3.org/2000/svg" viewBox="0 0 48 48"><defs><style>.cls-1{fill:#7d649c;}.cls-2{fill:#a499d6;}.cls-3{fill:#bcc0ff;}.cls-4{fill:#fabbc3;}.cls-5{fill:#f280a0;}.cls-6{fill:#f16d8f;}.cls-7{fill:#f89bae;}.cls-8{fill:#ffdddf;}</style></defs><title>08-arrow</title><g id="_08-arrow" data-name="08-arrow"><rect class="cls-1" x="16" y="1" width="2" height="4"/><rect class="cls-1" x="13" y="1" width="2" height="2"/><rect class="cls-1" x="23" y="16" width="2" height="21"/><path class="cls-1" d="M24,37a1,1,0,0,1-.447-.1L3,26l3.447.105L24,34.882l17.553-8.777L45,26,24.447,36.9A1,1,0,0,1,24,37Z"/><rect class="cls-1" x="23" y="5" width="2" height="6"/><polygon class="cls-2" points="24 36 24 43 20 47 20 40 24 36"/><polygon class="cls-3" points="28 40 28 47 24 43 24 36 28 40"/><path class="cls-4" d="M43,19a3.037,3.037,0,0,0-3,2c-4.03-2.53-7.54-10-16-10S12.03,18.47,8,21a3.037,3.037,0,0,0-3-2,4,4,0,0,0,0,8,4.748,4.748,0,0,0,.98-.11C11.36,25.77,17.4,16,24,16s12.64,9.78,18.02,10.89A4.748,4.748,0,0,0,43,27a4,4,0,0,0,0-8Z"/><path class="cls-5" d="M41,11c-.333,0-4-1.5-4-4.2A1.838,1.838,0,0,1,39,5a2.07,2.07,0,0,1,2,1.5A2.07,2.07,0,0,1,43,5a1.838,1.838,0,0,1,2,1.8C45,9.5,41.667,11,41,11Z"/><path class="cls-6" d="M39,5.8a1.792,1.792,0,0,1,.167-.774C39.109,5.022,39.061,5,39,5a1.838,1.838,0,0,0-2,1.8c0,2.7,3.667,4.2,4,4.2a5.007,5.007,0,0,0,2.153-1.017A.887.887,0,0,1,43,10C42.667,10,39,8.5,39,5.8Z"/><path class="cls-5" d="M7,45c-.333,0-4-1.5-4-4.2A1.838,1.838,0,0,1,5,39a2.07,2.07,0,0,1,2,1.5A2.07,2.07,0,0,1,9,39a1.838,1.838,0,0,1,2,1.8C11,43.5,7.667,45,7,45Z"/><path class="cls-6" d="M5,39.8a1.792,1.792,0,0,1,.167-.774C5.109,39.022,5.061,39,5,39a1.838,1.838,0,0,0-2,1.8C3,43.5,6.667,45,7,45a5.007,5.007,0,0,0,2.153-1.017A.887.887,0,0,1,9,44C8.667,44,5,42.5,5,39.8Z"/><path class="cls-5" d="M24,1c.333,0,4,1.5,4,4.2A1.838,1.838,0,0,1,26,7a2.07,2.07,0,0,1-2-1.5A2.07,2.07,0,0,1,22,7a1.838,1.838,0,0,1-2-1.8C20,2.5,23.333,1,24,1Z"/><path class="cls-7" d="M26,6.2a1.792,1.792,0,0,1-.167.774c.058,0,.106.026.167.026a1.838,1.838,0,0,0,2-1.8C28,2.5,24.333,1,24,1a5.007,5.007,0,0,0-2.153,1.017A.887.887,0,0,1,22,2C22.333,2,26,3.5,26,6.2Z"/><path class="cls-8" d="M5,22a3.037,3.037,0,0,1,3,2c4.03-2.53,7.54-10,16-10s11.97,7.47,16,10a3.037,3.037,0,0,1,3-2,4,4,0,0,1,3.7,2.5A3.992,3.992,0,0,0,43,19a3.037,3.037,0,0,0-3,2c-4.03-2.53-7.54-10-16-10S12.03,18.47,8,21a3.037,3.037,0,0,0-3-2,3.992,3.992,0,0,0-3.7,5.5A4,4,0,0,1,5,22Z"/><circle class="cls-3" cx="43" cy="23" r="2"/><circle class="cls-3" cx="5" cy="23" r="2"/><circle class="cls-2" cx="43" cy="23" r="1"/><circle class="cls-2" cx="5" cy="23" r="1"/></g></svg>